<?xml version="1.0" standalone="no"?>
<!DOCTYPE svg PUBLIC "-//W3C//DTD SVG 20010904//EN"
 "http://www.w3.org/TR/2001/REC-SVG-20010904/DTD/svg10.dtd">
<svg version="1.0" xmlns="http://www.w3.org/2000/svg"
 width="512.000000pt" height="512.000000pt" viewBox="0 0 512.000000 512.000000"
 preserveAspectRatio="xMidYMid meet">
<metadata>
Created by potrace 1.14, written by Peter Selinger 2001-2017
</metadata>
<g transform="translate(0.000000,512.000000) scale(0.100000,-0.100000)"
fill="#000000" stroke="none">
<path d="M350 4781 c-36 -10 -85 -28 -110 -41 -70 -36 -165 -138 -203 -217
l-32 -68 0 -1415 0 -1415 32 -68 c55 -115 164 -211 285 -251 68 -22 112 -25
461 -25 l327 -1 0 -416 c0 -365 2 -420 16 -451 34 -70 127 -110 196 -83 21 8
207 187 503 481 l470 469 1190 0 c1294 0 1254 -1 1367 56 115 58 223 202 247
329 6 31 10 563 10 1375 1 1467 4 1395 -64 1516 -55 97 -144 171 -267 221 -41
17 -167 18 -2203 20 -2042 2 -2164 1 -2225 -16z"/>
</g>
</svg>
